<svg width="64" height="64" viewBox="0 0 64 64" fill="none" xmlns="http://www.w3.org/2000/svg">
<rect width="64" height="64" rx="12" fill="#DDFCE7"/>
<path fill-rule="evenodd" clip-rule="evenodd" d="M15.9003 18C14.2985 18 13 19.2985 13 20.9003V42.1691H16.0221C16.4514 43.8369 17.9655 45.0694 19.7673 45.0694C21.5692 45.0694 23.0832 43.8369 23.5126 42.1691H24.723C25.1523 43.8369 26.6664 45.0694 28.4682 45.0694C30.2701 45.0694 31.7841 43.8369 32.2135 42.1691H41.1579C41.5873 43.8369 43.1013 45.0694 44.9032 45.0694C46.705 45.0694 48.2191 43.8369 48.6484 42.1691H51.6705V34.3148C51.6705 33.5053 51.3323 32.7327 50.7374 32.1837L45.6311 27.47C45.0953 26.9755 44.3929 26.7009 43.6638 26.7009H40.0694V20.9003C40.0694 19.2985 38.7709 18 37.1691 18H15.9003ZM48.6484 40.2356H49.737V35.4017H40.0694V40.2356H41.1579C41.5873 38.5677 43.1013 37.3353 44.9032 37.3353C46.705 37.3353 48.2191 38.5677 48.6484 40.2356ZM40.0694 33.4682H49.2785L44.3195 28.8908C44.141 28.7259 43.9068 28.6344 43.6638 28.6344H40.0694V33.4682ZM14.9335 40.2356V35.4017H38.1358V40.2356H32.2135C31.7841 38.5677 30.2701 37.3353 28.4682 37.3353C26.6664 37.3353 25.1523 38.5677 24.723 40.2356H23.5126C23.0832 38.5677 21.5692 37.3353 19.7673 37.3353C17.9655 37.3353 16.4514 38.5677 16.0221 40.2356H14.9335ZM17.8338 41.2023C17.8338 42.2702 18.6995 43.1358 19.7673 43.1358C20.8352 43.1358 21.7009 42.2702 21.7009 41.2023C21.7009 40.1344 20.8352 39.2688 19.7673 39.2688C18.6995 39.2688 17.8338 40.1344 17.8338 41.2023ZM28.4682 43.1358C29.5361 43.1358 30.4017 42.2702 30.4017 41.2023C30.4017 40.1344 29.5361 39.2688 28.4682 39.2688C27.4003 39.2688 26.5347 40.1344 26.5347 41.2023C26.5347 42.2702 27.4003 43.1358 28.4682 43.1358ZM46.8367 41.2023C46.8367 42.2702 45.9711 43.1358 44.9032 43.1358C43.8353 43.1358 42.9697 42.2702 42.9697 41.2023C42.9697 40.1344 43.8353 39.2688 44.9032 39.2688C45.9711 39.2688 46.8367 40.1344 46.8367 41.2023ZM27.5014 22.8338V25.7341H30.4017V27.6676H27.5014V30.5679H25.5679V27.6676H22.6676V25.7341H25.5679V22.8338H27.5014Z" fill="#00A540"/>
</svg>
