<svg width="64" height="64" viewBox="0 0 64 64" fill="none" xmlns="http://www.w3.org/2000/svg">
<rect width="64" height="64" rx="12" fill="#DDFCE7"/>
<path fill-rule="evenodd" clip-rule="evenodd" d="M31.671 22.1453C33.9203 22.1453 35.7437 20.322 35.7437 18.0727C35.7437 15.8234 33.9203 14 31.671 14C29.4217 14 27.5983 15.8234 27.5983 18.0727C27.5983 20.322 29.4217 22.1453 31.671 22.1453ZM44.2692 24.354C44.549 25.3137 43.9977 26.3186 43.0379 26.5982C40.8881 27.2248 38.9456 27.6966 37.1012 28.0111V38.431V38.436V48.3915C37.1012 49.3592 36.34 50.1558 35.3731 50.1997C34.4064 50.2435 33.5761 49.5191 33.4885 48.5554L32.5835 38.5999C32.5785 38.5452 32.576 38.4905 32.576 38.436H30.766C30.766 38.4905 30.7635 38.5452 30.7585 38.5999L29.8535 48.5554C29.7659 49.5191 28.9356 50.2435 27.9688 50.1997C27.0021 50.1558 26.2408 49.3592 26.2408 48.3915V27.9777C24.4012 27.6605 22.4657 27.1982 20.3266 26.6047C19.3633 26.3374 18.7991 25.3398 19.0663 24.3765C19.3337 23.4132 20.3312 22.849 21.2946 23.1163C25.4652 24.2735 28.5991 24.8464 31.6789 24.8602C34.7524 24.8739 37.8784 24.3312 42.025 23.1227C42.9848 22.8429 43.9896 23.3942 44.2692 24.354Z" fill="#00A540"/>
</svg>
