<svg width="64" height="64" viewBox="0 0 64 64" fill="none" xmlns="http://www.w3.org/2000/svg">
<rect width="64" height="64" rx="12" fill="#DDFCE7"/>
<path d="M18.5772 27.4793C18.5772 22.5608 21.8516 18 26.3355 18C29.4471 18 31.756 20.0463 33.1812 22.9491C34.6063 20.0464 36.9151 18 40.0268 18C44.5112 18 47.7852 22.5616 47.7852 27.4793C47.7852 38.0064 33.1812 45.4899 33.1812 45.4899C33.1812 45.4899 23.3438 40.754 19.8169 32.9858H28.5292L29.914 30.524L31.5315 36.1856L35.3194 31.3154H40.0536V29.5973H34.4791L32.2536 32.4586L30.4349 26.0934L27.5244 31.2676H19.1612C19.3433 31.8556 19.5639 32.4285 19.8169 32.9858L16 32.9857V31.2676L19.1612 31.2676C18.7889 30.0657 18.5772 28.801 18.5772 27.4793Z" fill="#00A540"/>
</svg>
