<svg width="64" height="64" viewBox="0 0 64 64" fill="none" xmlns="http://www.w3.org/2000/svg">
<rect width="64" height="64" rx="12" fill="#DDFCE7"/>
<path fill-rule="evenodd" clip-rule="evenodd" d="M36.9181 27.7986V25.9322L36.88 25.0629L36.9181 25.0613V18.4859C36.9181 17.6246 37.5905 16.9264 38.4199 16.9264H40.6726L41.0976 16.4724C41.6873 15.8425 42.6614 15.8425 43.2512 16.4724L43.6762 16.9264H45.9288C46.7582 16.9264 47.4307 17.6246 47.4307 18.4859V27.7986C47.4307 28.6599 46.7582 29.3581 45.9288 29.3581H44.427V30.624H43.0507L43.0502 40.4461C43.0502 42.3748 41.4813 43.9384 39.5461 43.9384C37.6107 43.9384 36.0419 42.3748 36.0419 40.4461V36.0372C36.0419 34.6321 34.9131 33.4899 33.5101 33.4621C33.4228 34.2476 32.7544 34.8586 31.9428 34.8586C31.072 34.8586 30.3659 34.155 30.3659 33.2871C30.3659 32.716 30.3424 30.8775 30.0181 29.2164C29.8899 28.5598 29.7294 28.0117 29.5485 27.605V35.6442H29.5291V45.8592C29.5291 46.7034 28.8599 47.3967 28.0134 47.4295C27.167 47.4623 26.4458 46.8227 26.3801 45.9811L25.5823 35.7662C25.579 35.7254 25.5775 35.6847 25.5775 35.6442H23.9421C23.9421 35.6847 23.9405 35.7254 23.9373 35.7662L23.1395 45.9811C23.0738 46.8227 22.3526 47.4623 21.5061 47.4295C20.6597 47.3967 19.9905 46.7034 19.9905 45.8592V35.6442H19.9711V27.6055C19.7902 28.012 19.6297 28.5601 19.5016 29.2164C19.1773 30.8775 19.1537 32.716 19.1537 33.2871C19.1537 34.155 18.4478 34.8586 17.5769 34.8586C16.706 34.8586 16 34.155 16 33.2871C16 32.6794 16.0208 30.5891 16.4059 28.6161C16.5958 27.6434 16.8983 26.5653 17.4167 25.6915C17.9391 24.811 18.8693 23.8579 20.3259 23.8579H29.1938C30.6504 23.8579 31.5806 24.811 32.103 25.6915C32.6214 26.5653 32.924 27.6434 33.1138 28.6161C33.3259 29.7027 33.4276 30.8249 33.476 31.7154C35.8625 31.7253 37.794 33.6564 37.794 36.0372V40.4461C37.794 41.4105 38.5784 42.1923 39.5461 42.1923C40.5137 42.1923 41.2981 41.4105 41.2981 40.4461L41.2986 30.624H39.9217V29.3581H38.4199C37.5905 29.3581 36.9181 28.6599 36.9181 27.7986ZM43.6762 18.6725C43.1904 18.6725 42.7265 18.4716 42.3951 18.1176L42.1744 17.8818L41.9536 18.1176C41.6223 18.4716 41.1583 18.6725 40.6726 18.6725H38.6702V25.0733L38.903 25.0823C39.3868 25.1015 39.819 25.1186 40.2413 25.1092C41.168 25.0885 41.9761 24.9402 42.8395 24.4072C43.4845 24.009 44.1159 23.839 44.7142 23.8593C45.0732 23.8715 45.3956 23.9513 45.6786 24.0665V18.6725H43.6762Z" fill="#00A540"/>
<path d="M27.9523 19.1431C27.9523 20.8789 26.523 22.2861 24.7599 22.2861C22.9967 22.2861 21.5674 20.8789 21.5674 19.1431C21.5674 17.4072 22.9967 16 24.7599 16C26.523 16 27.9523 17.4072 27.9523 19.1431Z" fill="#00A540"/>
</svg>
