<svg width="64" height="64" viewBox="0 0 64 64" fill="none" xmlns="http://www.w3.org/2000/svg">
<rect width="64" height="64" rx="12" fill="#DDFCE7"/>
<path fill-rule="evenodd" clip-rule="evenodd" d="M20.5724 29.4442V32.8379L16.6232 39.6079C14.8635 42.6245 17.0395 46.4129 20.5319 46.4129H28.5317C32.024 46.4129 34.1999 42.6245 32.4403 39.6079L28.4911 32.8379V29.4442C29.1159 29.4442 29.6223 28.9378 29.6223 28.313V23.788C29.6223 23.1632 29.1159 22.6567 28.4911 22.6567H20.5724C19.9476 22.6567 19.4411 23.1632 19.4411 23.788V28.313C19.4411 28.9378 19.9476 29.4442 20.5724 29.4442ZM30.4859 40.748L26.2286 33.4496V29.4442H22.8349V33.4496L18.5775 40.748C17.6976 42.2562 18.7857 44.1504 20.5319 44.1504H28.5317C30.2778 44.1504 31.3658 42.2562 30.4859 40.748ZM21.7036 24.9192V27.1817H27.3598V24.9192H21.7036Z" fill="#00A540"/>
<path fill-rule="evenodd" clip-rule="evenodd" d="M40.9349 23.4238C43.5163 21.7041 45.4599 20.0418 45.4599 17H47.7224C47.7224 20.8587 45.3724 23.0877 42.9852 24.7661C43.9252 25.3969 44.859 26.0812 45.6301 26.8651C46.8422 28.0975 47.7224 29.6407 47.7224 31.7062C47.7224 33.7717 46.8422 35.3149 45.6301 36.5472C44.859 37.3312 43.9252 38.0155 42.9852 38.6463C45.3724 40.3247 47.7224 42.5537 47.7224 46.4124H45.4599C45.4599 46.0126 45.4263 45.6366 45.3622 45.2811H39.8037C39.1789 45.2811 38.6724 44.7747 38.6724 44.1499C38.6724 43.5251 39.1789 43.0186 39.8037 43.0186H44.4021C43.5854 41.8659 42.3569 40.936 40.9349 39.9886C38.3535 41.7084 36.41 43.3706 36.41 46.4124H34.1475C34.1475 42.5537 36.4975 40.3247 38.8847 38.6463C37.9447 38.0155 37.0109 37.3312 36.2398 36.5472C35.0277 35.3149 34.1475 33.7717 34.1475 31.7062C34.1475 29.6407 35.0277 28.0975 36.2398 26.8651C37.0109 26.0812 37.9447 25.3969 38.8847 24.7661C36.4975 23.0877 34.1475 20.8587 34.1475 17H36.41C36.41 17.3998 36.4435 17.7758 36.5077 18.1312H42.0662C42.691 18.1312 43.1974 18.6377 43.1974 19.2625C43.1974 19.8873 42.691 20.3937 42.0662 20.3937H37.4678C38.2844 21.5465 39.513 22.4764 40.9349 23.4238ZM40.9349 26.126C39.7988 26.8648 38.7895 27.5409 37.9931 28.3125H43.8767C43.0803 27.5409 42.071 26.8648 40.9349 26.126ZM36.41 31.7062C36.41 31.3011 36.4596 30.9264 36.5544 30.5749H45.3155C45.4103 30.9264 45.4599 31.3011 45.4599 31.7062C45.4599 32.1113 45.4103 32.486 45.3155 32.8374H36.5544C36.4596 32.486 36.41 32.1113 36.41 31.7062ZM37.9931 35.0999C38.7895 35.8714 39.7988 36.5476 40.9349 37.2864C42.071 36.5476 43.0803 35.8714 43.8767 35.0999H37.9931Z" fill="#00A540"/>
</svg>
