<svg width="64" height="64" viewBox="0 0 64 64" fill="none" xmlns="http://www.w3.org/2000/svg">
<rect width="64" height="64" rx="12" fill="#DDFCE7"/>
<path fill-rule="evenodd" clip-rule="evenodd" d="M39.1223 22.3991C39.1223 26.4856 35.8096 29.7983 31.7231 29.7983C27.6367 29.7983 24.324 26.4856 24.324 22.3991C24.324 18.3127 27.6367 15 31.7231 15C35.8096 15 39.1223 18.3127 39.1223 22.3991ZM24.5205 38.1325C24.4559 38.1258 24.3904 38.1223 24.324 38.1223C23.3024 38.1223 22.4742 38.9504 22.4742 39.9721C22.4742 40.1696 22.5052 40.3599 22.5626 40.5384L24.5205 38.1325ZM32.4583 42.0507C33.6533 42.5268 34.4978 43.6942 34.4978 45.059C34.4978 46.6897 33.2919 48.0389 31.7231 48.2633V48.2961H31.2607H31.0505H27.3366H26.1738H24.324C19.7268 48.2961 16 44.5693 16 39.9721C16 35.3748 19.7268 31.648 24.324 31.648H29.798H30.2377H31.2607H35.4227H36.8124H39.1223C43.7195 31.648 47.4463 35.3748 47.4463 39.9721C47.4463 44.5693 43.7195 48.2961 39.1223 48.2961H35.1848C35.9112 47.4166 36.3476 46.2887 36.3476 45.059C36.3476 42.9259 35.0346 41.0994 33.1728 40.3437L32.4583 42.0507ZM30.8313 33.4978H31.2607H34.033L28.6132 46.4463H24.324C23.0768 46.4463 21.9119 46.0936 20.9237 45.4826L29.8453 34.5203L30.8313 33.4978ZM40.9721 39.9721C40.9721 40.9937 40.1439 41.8218 39.1223 41.8218V38.1223C40.1439 38.1223 40.9721 38.9504 40.9721 39.9721Z" fill="#00A540"/>
</svg>
