<svg width="64" height="64" viewBox="0 0 64 64" fill="none" xmlns="http://www.w3.org/2000/svg">
<rect width="64" height="64" rx="12" fill="#DDFCE7"/>
<path fill-rule="evenodd" clip-rule="evenodd" d="M26.1963 35.2076C27.3416 36.0666 27.5737 37.6914 26.7147 38.8368L24.1225 42.2931C23.6329 42.9459 22.8646 43.33 22.0486 43.33H18.5923C17.1606 43.33 16 42.1695 16 40.7378C16 39.3061 17.1606 38.1455 18.5923 38.1455H20.7525L22.5671 35.726C23.4261 34.5807 25.0509 34.3486 26.1963 35.2076Z" fill="#00A540"/>
<path d="M44.9248 38.4858H42.1561L41.6638 38.2593C40.4026 36.8577 38.3595 33.8104 36.6476 32.7642C35.9237 32.3216 35.1097 32.092 34.2832 32.0973H34.2791H29.3936L29.8998 43.3304H33.986H33.987C34.6617 43.3292 35.3294 43.1775 35.9501 42.8842C36.5712 42.5909 37.1329 42.1619 37.6016 41.6227L38.0937 41.0566C38.715 41.7472 39.2888 43.3304 40.211 43.3304H45.0404C45.6194 43.3304 46.0588 43.0752 46.4683 42.621C46.8775 42.1666 47.1075 41.5504 47.1075 40.9081C47.1075 40.2657 46.8775 39.6495 46.4683 39.1953C46.0588 38.7409 45.5037 38.4858 44.9248 38.4858Z" fill="#00A540"/>
<path d="M45.3787 25.6166C45.3787 28.7186 42.8641 31.2332 39.7621 31.2332C36.6601 31.2332 34.1455 28.7186 34.1455 25.6166C34.1455 22.5146 36.6601 20 39.7621 20C42.8641 20 45.3787 22.5146 45.3787 25.6166Z" fill="#00A540"/>
<path fill-rule="evenodd" clip-rule="evenodd" d="M39.7621 29.505C41.9096 29.505 43.6505 27.7641 43.6505 25.6166C43.6505 23.4691 41.9096 21.7282 39.7621 21.7282C37.6146 21.7282 35.8737 23.4691 35.8737 25.6166C35.8737 27.7641 37.6146 29.505 39.7621 29.505ZM39.7621 31.2332C42.8641 31.2332 45.3787 28.7186 45.3787 25.6166C45.3787 22.5146 42.8641 20 39.7621 20C36.6601 20 34.1455 22.5146 34.1455 25.6166C34.1455 28.7186 36.6601 31.2332 39.7621 31.2332Z" fill="#00A540"/>
</svg>
