<svg width="64" height="64" viewBox="0 0 64 64" fill="none" xmlns="http://www.w3.org/2000/svg">
<rect width="64" height="64" rx="12" fill="#DDFCE7"/>
<path fill-rule="evenodd" clip-rule="evenodd" d="M33.2809 43.7841C32.6886 43.3971 31.9809 43.1723 31.2208 43.1723C29.1377 43.1723 27.4492 44.8609 27.4492 46.9438C27.4492 49.0267 29.1377 50.7153 31.2208 50.7153C33.2942 50.7153 34.9768 49.0421 34.9921 46.9723L35.2029 43.1838H36.6673L36.8781 46.9723C36.8934 49.0421 38.5761 50.7153 40.6496 50.7153C42.7325 50.7153 44.4211 49.0267 44.4211 46.9438C44.4211 44.8609 42.7325 43.1723 40.6496 43.1723C39.8893 43.1723 39.1816 43.3971 38.5894 43.7841L36.8765 13L35.9352 13.0524L34.9937 13L33.2809 43.7841ZM36.5624 41.298L35.9352 30.0245L35.3079 41.298H36.5624ZM36.878 26.2345C36.878 26.7545 36.4558 27.1761 35.9351 27.1761C35.4144 27.1761 34.9922 26.7545 34.9922 26.2345C34.9922 25.7145 35.4144 25.2929 35.9351 25.2929C36.4558 25.2929 36.878 25.7145 36.878 26.2345ZM29.335 46.9438C29.335 45.9023 30.1792 45.058 31.2208 45.058C32.2622 45.058 33.1065 45.9023 33.1065 46.9438C33.1065 47.9853 32.2622 48.8296 31.2208 48.8296C30.1792 48.8296 29.335 47.9853 29.335 46.9438ZM40.6496 45.058C39.6081 45.058 38.7638 45.9023 38.7638 46.9438C38.7638 47.9853 39.6081 48.8296 40.6496 48.8296C41.691 48.8296 42.5354 47.9853 42.5354 46.9438C42.5354 45.9023 41.691 45.058 40.6496 45.058Z" fill="#00A540"/>
<path d="M22.7347 23.3717V13C22.7347 13 19.4553 15.1315 19.0124 23.3698C18.9565 24.4098 19.8074 25.2575 20.8489 25.2575C21.8903 25.2575 22.7347 24.4132 22.7347 23.3717Z" fill="#00A540"/>
<path d="M19.9062 28.5574C19.9062 27.7763 20.5394 27.1431 21.3206 27.1431C22.1017 27.1431 22.7349 27.7763 22.7349 28.5574V28.6383L19.9062 31.4669V28.5574Z" fill="#00A540"/>
<path d="M19.9062 34.1338V35.7099L22.7349 32.8813V31.3052L19.9062 34.1338Z" fill="#00A540"/>
<path d="M19.9062 39.9531V38.377L22.7349 35.5483V37.1245L19.9062 39.9531Z" fill="#00A540"/>
<path d="M19.9062 42.6197V49.3007C19.9062 50.0818 20.5394 50.7151 21.3206 50.7151C22.1017 50.7151 22.7349 50.0818 22.7349 49.3007V39.791L19.9062 42.6197Z" fill="#00A540"/>
</svg>
