<svg width="700" height="160" viewBox="0 0 700 160" fill="none" xmlns="http://www.w3.org/2000/svg">
<circle cx="85.0303" cy="74.8828" r="63" fill="#252A64"/>
<circle cx="85.0303" cy="74.8828" r="69.5" stroke="#1D6737" stroke-width="3"/>
<path d="M70.2675 55.4354H64.1553L79.0788 70.5109C80.5814 72.0288 82.6285 72.8828 84.7643 72.8828H84.9945C87.2626 72.8828 89.4241 71.9201 90.9413 70.2341L104.155 55.5495L96.2447 55.4354V46.8714C96.2447 39.698 90.4295 33.8828 83.2561 33.8828C76.0827 33.8828 70.2675 39.698 70.2675 46.8714V55.4354Z" fill="#11683D"/>
<path d="M54.5303 55.3828H40.0303L41.0303 72.8828L47.5303 79.3828H71.0303V104.667L83.0303 83.8828C76.333 72.2828 61.2397 60.0495 54.5303 55.3828Z" fill="#D9D9D9"/>
<path d="M116.03 55.3828H130.53L129.53 72.8828L123.03 79.3828H99.5303V104.667L87.5303 83.8828C94.2275 72.2828 109.321 60.0495 116.03 55.3828Z" fill="#D9D9D9"/>
<path d="M74.0299 107.383L85.0299 87.3828L96.5303 107.383C97.3303 118.583 89.1967 121.049 85.0299 120.883C75.4299 120.083 73.6966 111.549 74.0299 107.383Z" fill="#D9D9D9"/>
<circle cx="84.9414" cy="58.9414" r="5.94141" fill="#D9D9D9"/>
<path d="M159 87.4489C157.468 103.751 150.952 119.185 140.336 131.651C129.721 144.117 115.522 153.011 99.6729 157.12C83.8234 161.23 67.0926 160.357 51.7571 154.62C36.4215 148.882 23.2259 138.56 13.9658 125.056C4.70575 111.553 -0.169145 95.524 0.00448186 79.1513C0.178109 62.7786 5.39183 46.857 14.9362 33.5528C24.4806 20.2487 37.8921 10.2082 53.3459 4.79745C68.7997 -0.613266 85.5452 -1.1314 101.304 3.31354L98.9065 2.66742C84.8575 -1.29528 69.9287 -0.833354 56.1515 3.99034C42.3744 8.81403 30.4179 17.7652 21.909 29.626C13.4001 41.4867 8.80289 64.6466 8.64811 79.2429C8.49332 93.8393 12.8393 108.129 21.0948 120.167C29.3502 132.206 41.1142 141.409 54.7859 146.524C68.4577 151.638 91.7626 155.819 105.893 152.155C120.022 148.491 132.68 140.563 142.144 129.449C151.608 118.336 157.418 104.576 158.783 90.0428L159 87.4489Z" fill="#38B847"/>
<path d="M206.6 84.3359V38.8959H189.8V27.5359H237.4V38.8959H220.6V84.3359H206.6ZM254.487 84.3359V27.5359H268.407V54.2559L262.407 50.0159H293.607L287.607 54.2559V27.5359H301.527V84.3359H287.607V57.2959L293.607 61.4559H262.407L268.407 57.2959V84.3359H254.487ZM323.44 84.3359V27.5359H364.24V38.8959H337.36V50.1759H363.28V61.5359H337.36V72.9759H364.88V84.3359H323.44ZM415.331 84.3359V27.5359H429.251V54.2559L423.251 50.0159H454.451L448.451 54.2559V27.5359H462.371V84.3359H448.451V57.2959L454.451 61.4559H423.251L429.251 57.2959V84.3359H415.331ZM484.284 84.3359V27.5359H498.204V84.3359H484.284ZM521.049 84.3359V27.5359H534.969V81.0559L527.129 72.9759H560.409V84.3359H521.049ZM578.596 84.3359V27.5359H592.516V81.0559L584.676 72.9759H617.956V84.3359H578.596ZM658.021 85.6159C652.954 85.6159 648.607 84.7893 644.981 83.1359C641.407 81.4826 638.607 79.1626 636.581 76.1759C634.607 73.1359 633.487 69.5626 633.221 65.4559L647.141 64.8159C647.407 66.8426 647.994 68.5759 648.901 70.0159C649.807 71.4559 651.007 72.5493 652.501 73.2959C654.047 74.0426 655.941 74.4159 658.181 74.4159C659.994 74.4159 661.514 74.2026 662.741 73.7759C664.021 73.3493 664.981 72.7093 665.621 71.8559C666.314 71.0026 666.661 69.9359 666.661 68.6559C666.661 67.4826 666.367 66.4693 665.781 65.6159C665.247 64.7093 664.154 63.9093 662.501 63.2159C660.901 62.4693 658.474 61.7493 655.221 61.0559C650.207 59.9893 646.154 58.7626 643.061 57.3759C640.021 55.9359 637.781 54.1493 636.341 52.0159C634.954 49.8293 634.261 47.0559 634.261 43.6959C634.261 40.2293 635.141 37.1893 636.901 34.5759C638.661 31.9626 641.194 29.9359 644.501 28.4959C647.807 27.0026 651.754 26.2559 656.341 26.2559C661.247 26.2559 665.354 27.1093 668.661 28.8159C672.021 30.4693 674.634 32.7626 676.501 35.6959C678.367 38.6293 679.487 42.0159 679.861 45.8559L666.101 46.4959C665.941 44.6293 665.434 43.0293 664.581 41.6959C663.781 40.3626 662.661 39.3226 661.221 38.5759C659.834 37.8293 658.154 37.4559 656.181 37.4559C653.727 37.4559 651.781 37.9893 650.341 39.0559C648.954 40.1226 648.261 41.5093 648.261 43.2159C648.261 44.5493 648.581 45.6426 649.221 46.4959C649.914 47.3493 651.034 48.0959 652.581 48.7359C654.127 49.3226 656.287 49.8826 659.061 50.4159C664.501 51.4293 668.794 52.7626 671.941 54.4159C675.087 56.0693 677.327 58.0159 678.661 60.2559C679.994 62.4959 680.661 65.0826 680.661 68.0159C680.661 71.6426 679.754 74.7893 677.941 77.4559C676.127 80.0693 673.514 82.0959 670.101 83.5359C666.741 84.9226 662.714 85.6159 658.021 85.6159Z" fill="black"/>
<line x1="187" y1="121.336" x2="219" y2="121.336" stroke="#1D6737" stroke-width="4"/>
<path d="M272.071 141.336L266.559 116.168L255.951 143.416L245.291 116.168L239.831 141.336H236.087L244.355 103.636L255.951 133.9L267.547 103.636L275.763 141.336H272.071ZM302.762 141.336H281.754V105.976H302.762V109.356H285.394V121.94H302.242V125.372H285.394V137.956H302.762V141.336ZM339.563 123.656C339.563 126.256 339.043 128.596 338.107 130.78C337.171 132.964 335.871 134.784 334.259 136.344C332.595 137.904 330.671 139.152 328.487 140.036C326.251 140.92 323.859 141.336 321.363 141.336H312.107V105.976H321.363C323.859 105.976 326.251 106.444 328.487 107.328C330.671 108.212 332.595 109.408 334.259 110.968C335.871 112.528 337.171 114.4 338.107 116.584C339.043 118.768 339.563 121.108 339.563 123.656ZM336.027 123.656C336.027 119.652 334.571 116.272 331.763 113.568C328.955 110.968 325.523 109.616 321.467 109.616H315.747V137.696H321.467C325.523 137.696 328.955 136.396 331.763 133.744C334.571 131.092 336.027 127.712 336.027 123.656ZM351.025 141.336H347.385V105.976H351.025V141.336ZM392.819 130.52C391.467 133.952 389.335 136.656 386.371 138.736C383.303 140.816 380.027 141.856 376.439 141.856C371.499 141.856 367.339 140.088 363.907 136.448C360.475 132.912 358.811 128.7 358.811 123.708C358.811 121.264 359.227 118.924 360.163 116.74C361.047 114.556 362.295 112.58 363.907 110.916C367.339 107.328 371.499 105.508 376.439 105.508C380.027 105.508 383.303 106.548 386.319 108.628C389.283 110.708 391.415 113.412 392.767 116.74H388.763C386.839 113.256 383.979 110.968 380.183 109.824C378.935 109.46 377.531 109.252 375.919 109.252C374.255 109.252 372.591 109.668 370.927 110.448C369.211 111.228 367.703 112.268 366.455 113.568C363.751 116.376 362.451 119.756 362.451 123.708C362.451 127.66 363.751 131.04 366.455 133.796C369.211 136.708 372.539 138.112 376.439 138.112C379.039 138.112 381.483 137.436 383.667 136.032C385.851 134.68 387.567 132.808 388.815 130.52H392.819ZM403.3 128.336H416.144L409.748 112.06L403.3 128.336ZM425.244 141.336H421.292L417.496 131.716H401.948L398.152 141.336H394.2L409.748 103.532L425.244 141.336ZM434.873 137.696H447.509V141.336H434.873H433.053H431.233V105.976H434.873V137.696ZM502.043 130.52C500.691 133.952 498.559 136.656 495.595 138.736C492.527 140.816 489.251 141.856 485.663 141.856C480.723 141.856 476.563 140.088 473.131 136.448C469.699 132.912 468.035 128.7 468.035 123.708C468.035 121.264 468.451 118.924 469.387 116.74C470.271 114.556 471.519 112.58 473.131 110.916C476.563 107.328 480.723 105.508 485.663 105.508C489.251 105.508 492.527 106.548 495.543 108.628C498.507 110.708 500.639 113.412 501.991 116.74H497.987C496.063 113.256 493.203 110.968 489.407 109.824C488.159 109.46 486.755 109.252 485.143 109.252C483.479 109.252 481.815 109.668 480.151 110.448C478.435 111.228 476.927 112.268 475.679 113.568C472.975 116.376 471.675 119.756 471.675 123.708C471.675 127.66 472.975 131.04 475.679 133.796C478.435 136.708 481.763 138.112 485.663 138.112C488.263 138.112 490.707 137.436 492.891 136.032C495.075 134.68 496.791 132.808 498.039 130.52H502.043ZM530.046 141.336H509.038V105.976H530.046V109.356H512.678V121.94H529.526V125.372H512.678V137.956H530.046V141.336ZM543.031 115.284V141.336H539.391V103.74L559.255 131.976V105.976H562.895V143.52L543.031 115.284ZM569.373 109.252V105.872H577.953H581.593H590.173V109.252H581.593V141.232H577.953V109.252H569.373ZM600.335 123.864H608.551C610.579 123.864 612.243 123.188 613.595 121.784C614.947 120.38 615.623 118.664 615.623 116.584C615.623 114.504 614.947 112.84 613.699 111.488C612.399 110.136 610.683 109.46 608.551 109.46H600.335V123.864ZM619.263 116.636C619.263 119.756 618.119 122.356 615.935 124.384C614.011 126.204 611.671 127.192 608.915 127.348L619.835 141.336H614.947L604.547 127.348H600.335V141.336H596.695V105.976H608.031C611.151 105.976 613.803 107.016 615.935 108.992C618.119 111.02 619.263 113.62 619.263 116.636ZM647.548 141.336H626.54V105.976H647.548V109.356H630.18V121.94H647.028V125.372H630.18V137.956H647.548V141.336Z" fill="black"/>
<line x1="668" y1="121.336" x2="700" y2="121.336" stroke="#1D6737" stroke-width="4"/>
</svg>
