<svg width="64" height="64" viewBox="0 0 64 64" fill="none" xmlns="http://www.w3.org/2000/svg">
<rect width="64" height="64" rx="12" fill="#DDFCE7"/>
<path fill-rule="evenodd" clip-rule="evenodd" d="M36.0057 18.1363C36.0057 20.4208 34.1538 22.2727 31.8694 22.2727C29.5849 22.2727 27.7331 20.4208 27.7331 18.1363C27.7331 15.8519 29.5849 14 31.8694 14C34.1538 14 36.0057 15.8519 36.0057 18.1363ZM37.3845 41.5756H33.0317L33.7153 49.0955C33.8043 50.0744 34.6475 50.8101 35.6294 50.7656C36.6114 50.721 37.3845 49.912 37.3845 48.9291V41.5756ZM30.7071 41.5756H26.3543V48.9291C26.3543 49.912 27.1275 50.721 28.1094 50.7656C29.0912 50.8101 29.9345 50.0744 30.0235 49.0955L30.7071 41.5756ZM42.8587 23.1919H42.9422C42.9144 23.1912 42.8867 23.1912 42.8587 23.1919ZM20.7969 23.1919C20.8244 23.1912 20.8518 23.1912 20.8794 23.1919H20.7969Z" fill="#00A540"/>
<path fill-rule="evenodd" clip-rule="evenodd" d="M19.9192 24.1108C19.4115 24.1108 19 24.5224 19 25.03V38.8178C19 39.3255 19.4115 39.737 19.9192 39.737H43.818C44.3257 39.737 44.7372 39.3255 44.7372 38.8178V25.03C44.7372 24.5224 44.3257 24.1108 43.818 24.1108H19.9192ZM30.9494 25.9492V27.328H30.4898C29.6342 27.328 28.7058 27.6045 28.0501 27.8429C27.7097 27.9666 27.4167 28.0901 27.2081 28.1827C27.1035 28.2293 27.0194 28.2684 26.9602 28.2964C26.9306 28.3105 26.9073 28.3218 26.8907 28.3299L26.8709 28.3396L26.8649 28.3426L26.8629 28.3436L26.8619 28.3441C26.8619 28.3441 26.8616 28.3442 27.2727 29.1664C27.6837 29.9885 27.6836 29.9886 27.6836 29.9886L27.6851 29.9878L27.6967 29.9821C27.7076 29.9768 27.7251 29.9684 27.7484 29.9573C27.7952 29.9351 27.8655 29.9024 27.9548 29.8627C28.134 29.783 28.3867 29.6767 28.6783 29.5706C29.2865 29.3495 29.9667 29.1664 30.4898 29.1664H30.9494V31.0047H30.2141C29.1135 31.0047 27.9588 31.5892 27.1869 32.057C26.7774 32.3052 26.4259 32.552 26.1769 32.7364C26.0519 32.829 25.9515 32.9068 25.8813 32.9623C25.8461 32.9902 25.8184 33.0125 25.7989 33.0284L25.7756 33.0474L25.7687 33.0531L25.7665 33.055L25.7657 33.0556C25.7657 33.0556 25.765 33.0562 26.3535 33.7623C26.942 34.4684 26.9417 34.4686 26.9417 34.4686L26.9442 34.4667L26.9585 34.4549C26.9721 34.4439 26.9933 34.4267 27.0217 34.4043C27.0785 34.3593 27.1635 34.2934 27.2712 34.2137C27.4875 34.0534 27.7909 33.8406 28.1397 33.6292C28.8845 33.1779 29.6601 32.8431 30.2141 32.8431H30.9494V34.8357C30.3047 35.017 29.6857 35.3344 29.184 35.6941C28.8165 35.9576 28.4755 36.2695 28.2172 36.6123C27.9704 36.9401 27.7323 37.3861 27.7323 37.8986H29.5706C29.5706 37.9026 29.5705 37.906 29.5705 37.9087C29.5704 37.911 29.5702 37.9144 29.5702 37.9144C29.57 37.9163 29.5701 37.9174 29.5701 37.9174C29.5701 37.9174 29.5705 37.9164 29.5713 37.9144C29.5761 37.9 29.5979 37.8349 29.6857 37.7183C29.8056 37.5592 29.9987 37.3721 30.2553 37.1881C30.7704 36.8188 31.3977 36.5625 31.898 36.5202C32.3224 36.5306 32.9236 36.763 33.4536 37.1483C33.7135 37.3374 33.9146 37.534 34.0417 37.7033C34.1347 37.8273 34.1593 37.8975 34.1654 37.9146L34.1661 37.9168L34.167 37.9188C34.167 37.9188 34.1666 37.912 34.1666 37.8986H36.0049C36.0049 37.382 35.759 36.9291 35.5124 36.6003C35.2515 36.2526 34.9069 35.9321 34.5349 35.6616C34.0448 35.3051 33.4302 34.9809 32.7878 34.8093V32.8431H33.7989C34.4873 32.8431 35.1948 33.1798 35.7872 33.5956C36.0725 33.7958 36.3069 33.9972 36.469 34.1481C36.5496 34.223 36.6111 34.2843 36.6508 34.325C36.6705 34.3453 36.6849 34.3604 36.6932 34.3694L36.7009 34.3776C36.7009 34.3776 36.7005 34.3772 37.3837 33.7623C38.067 33.1474 38.0666 33.147 38.0666 33.147L38.0652 33.1455L38.0629 33.1429L38.0564 33.1358L38.0361 33.1139C38.0193 33.096 37.9962 33.0715 37.967 33.0417C37.9087 32.9818 37.8258 32.8995 37.7211 32.802C37.5127 32.6082 37.2128 32.3501 36.8432 32.0907C36.1257 31.5872 35.0408 31.0047 33.7989 31.0047H32.7878V29.1664H33.4772C34.1154 29.1664 34.7358 29.3512 35.2174 29.5539C35.4537 29.6534 35.6457 29.7526 35.776 29.8253C35.8409 29.8616 35.8898 29.8909 35.9204 29.9097C35.9357 29.9191 35.9464 29.9259 35.9523 29.9297L35.955 29.9314C35.955 29.9314 35.9547 29.9312 36.4645 29.1664C36.9744 28.4015 36.974 28.4012 36.974 28.4012L36.9726 28.4003L36.9702 28.3988L36.9638 28.3946L36.9451 28.3825C36.9299 28.3727 36.9094 28.3598 36.8839 28.3441C36.8329 28.3126 36.7614 28.2701 36.6719 28.2202C36.4935 28.1205 36.2402 27.9899 35.9308 27.8596C35.3208 27.6027 34.4476 27.328 33.4772 27.328H32.7886L32.7878 25.9492H30.9494Z" fill="#00A540"/>
</svg>
